<?xml version="1.0" standalone="no"?>
<!DOCTYPE svg PUBLIC "-//W3C//DTD SVG 20010904//EN"
 "http://www.w3.org/TR/2001/REC-SVG-20010904/DTD/svg10.dtd">
<svg version="1.0" xmlns="http://www.w3.org/2000/svg"
 width="1024.000000pt" height="1024.000000pt" viewBox="0 0 1024.000000 1024.000000"
 preserveAspectRatio="xMidYMid meet">

<g transform="translate(0.000000,1024.000000) scale(0.100000,-0.100000)"
fill="#000000" stroke="none">
<path d="M2855 7783 c-164 -20 -294 -112 -367 -261 l-33 -67 -3 -1800 c-2
-1791 -2 -1800 18 -1868 12 -37 24 -65 29 -63 4 3 8 -1 8 -8 0 -21 73 -109
120 -146 24 -18 71 -44 105 -59 l63 -26 807 -3 808 -3 -21 -52 c-17 -45 -66
-177 -116 -311 -29 -81 -18 -76 -179 -76 l-146 0 -33 -33 c-41 -41 -50 -72
-35 -126 8 -30 20 -48 43 -61 31 -19 59 -20 1192 -20 1132 0 1161 1 1192 20
43 26 61 84 44 140 -21 70 -50 80 -223 80 -82 0 -148 1 -148 3 0 2 -21 59 -46
128 -58 157 -104 292 -104 301 0 5 72 8 160 8 l160 0 -35 51 c-19 28 -49 79
-66 115 l-32 64 -1586 0 c-1512 0 -1588 1 -1626 19 -51 23 -101 79 -114 128
-6 22 -11 142 -11 281 l0 242 1669 0 1670 0 43 82 c23 46 56 97 71 115 l29 33
-1741 0 -1741 0 0 1180 0 1180 2440 0 2440 0 0 -1075 0 -1076 62 -57 c62 -58
109 -107 147 -152 l20 -25 1 1400 c0 1506 2 1444 -51 1551 -13 26 -48 74 -78
106 -60 66 -162 122 -250 138 -50 9 -4481 13 -4556 3z m176 -308 c39 -21 69
-71 69 -118 0 -56 -50 -107 -110 -113 -54 -6 -86 9 -117 55 -40 60 -26 126 36
168 40 27 80 29 122 8z m460 0 c39 -21 69 -71 69 -117 0 -49 -50 -103 -104
-113 -99 -19 -177 86 -131 176 32 61 106 85 166 54z m467 -5 c34 -21 62 -72
62 -112 0 -34 -35 -85 -69 -103 -60 -30 -119 -14 -158 44 -40 59 -23 133 40
171 41 25 83 25 125 0z m1695 -4117 c25 -71 59 -166 76 -212 17 -46 31 -88 31
-93 0 -4 -292 -8 -650 -8 l-649 0 30 83 c30 82 102 278 121 330 l10 27 492 0
492 0 47 -127z"/>
<path d="M5655 6666 c-33 -7 -152 -30 -265 -50 -113 -21 -297 -55 -410 -76
-113 -22 -254 -48 -315 -60 -144 -27 -162 -35 -186 -81 -18 -35 -19 -61 -19
-332 0 -162 -3 -355 -7 -431 l-6 -136 -31 5 c-52 10 -166 -14 -229 -47 -142
-76 -210 -227 -168 -378 18 -62 108 -151 179 -174 172 -57 351 23 431 194 l26
55 3 477 c3 439 4 477 20 482 9 3 55 12 102 20 47 8 173 31 280 51 107 20 285
54 395 74 140 27 202 35 207 27 4 -6 8 -144 8 -307 l0 -296 -98 -5 c-125 -6
-199 -37 -270 -112 -76 -81 -87 -106 -87 -211 0 -67 5 -98 18 -122 29 -55 78
-103 131 -131 46 -24 61 -27 151 -27 94 1 104 3 163 35 70 37 129 98 164 168
l23 47 3 622 c3 676 3 672 -52 708 -34 23 -89 26 -161 11z"/>
<path d="M6785 4824 c-143 -32 -274 -103 -383 -208 -210 -201 -296 -492 -228
-768 75 -298 296 -524 596 -607 93 -26 275 -29 377 -6 37 9 115 39 172 66
l103 51 34 -33 c19 -19 32 -40 29 -47 -23 -59 -29 -50 221 -303 132 -132 256
-249 276 -260 66 -34 120 -23 195 38 83 68 115 162 79 231 -21 39 -499 512
-518 512 -9 0 -26 -9 -39 -19 l-24 -20 -37 36 -37 36 23 31 c64 84 129 237
144 336 11 74 6 251 -10 315 -61 245 -216 444 -433 553 -114 57 -187 74 -335
78 -97 3 -155 -1 -205 -12z m281 -225 c32 -5 100 -30 149 -54 217 -104 353
-337 331 -564 -30 -307 -306 -548 -606 -528 -156 11 -282 68 -391 178 -137
137 -199 349 -154 524 79 307 369 498 671 444z"/>
</g>
</svg>
